<svg width="2000" height="400" viewBox="0 0 2000 400" fill="none" xmlns="http://www.w3.org/2000/svg">
<path d="M556.433 215.194H535.66C529.185 227.062 520.283 236.772 508.952 243.785C497.622 251.068 484.942 254.574 471.454 254.574C451.221 254.574 433.955 247.292 419.657 232.187C405.629 217.891 398.884 200.359 398.884 179.859C398.884 159.36 405.629 141.827 419.657 127.262C426.131 120.518 433.955 115.124 442.858 111.078C451.49 107.032 460.123 104.874 468.756 104.874C477.119 104.874 484.403 105.953 490.877 107.841C510.571 113.775 525.409 125.643 535.39 143.715H556.163C549.149 126.453 538.088 112.427 522.711 101.637C507.064 90.8482 490.068 85.4536 471.454 85.4536C445.825 85.4536 424.243 94.8941 406.438 113.505C398.075 122.137 391.6 132.387 387.014 143.715C382.158 155.044 380 167.182 380 179.859C380 205.753 388.633 227.601 406.438 245.943C424.243 264.824 445.825 273.995 471.454 273.995C490.068 273.995 507.064 268.6 522.981 257.811C538.358 247.022 549.419 232.996 556.433 215.194Z" fill="white"/>
<path d="M679.249 211.418C679.249 223.286 674.933 233.266 666.57 241.627C657.937 250.259 647.956 254.305 636.085 254.305C624.215 254.305 613.964 250.259 605.601 241.627C596.968 233.266 592.921 223.286 592.921 211.418C592.921 199.549 596.968 189.569 605.601 180.938C613.964 172.576 624.215 168.261 636.085 168.261C647.956 168.261 657.937 172.576 666.57 180.938C674.933 189.569 679.249 199.549 679.249 211.418ZM698.134 211.418C698.134 194.425 691.929 179.859 679.789 167.721C667.649 155.583 653.081 149.38 636.085 149.38C618.82 149.38 604.252 155.583 592.112 167.721C579.972 179.859 574.037 194.425 574.037 211.418C574.037 228.68 579.972 243.246 592.112 255.114C604.252 267.252 619.09 273.186 636.085 273.186C652.811 273.186 667.649 267.252 679.789 255.114C691.929 243.246 698.134 228.68 698.134 211.418Z" fill="white"/>
<path d="M734.351 338.73V251.068C735.16 252.686 736.509 254.035 737.588 255.114C748.918 267.791 762.677 273.995 779.133 273.995C795.32 273.995 809.078 267.791 820.409 255.114C831.2 242.976 836.865 228.68 836.865 212.227C836.865 195.503 831.2 181.208 820.409 169.07C809.078 156.393 795.32 150.189 779.133 150.189C762.677 150.189 748.918 156.393 737.588 169.07C736.509 170.149 735.16 171.498 734.351 173.116V152.886H715.466V339L734.351 338.73ZM817.981 212.227C817.981 223.555 813.934 233.805 805.841 242.437C797.748 251.068 787.766 255.384 776.166 255.384C764.296 255.384 754.314 251.068 746.221 242.437C738.128 233.805 734.351 223.555 734.351 212.227C734.351 200.628 738.128 190.379 746.221 182.017C754.314 173.386 764.296 169.07 776.166 169.07C787.766 169.07 797.748 173.386 805.841 182.017C813.934 190.379 817.981 200.628 817.981 212.227Z" fill="white"/>
<path d="M873.219 338.73V251.068C874.028 252.686 875.377 254.035 876.456 255.114C887.787 267.791 901.545 273.995 918.002 273.995C934.188 273.995 947.947 267.791 959.277 255.114C970.068 242.976 975.734 228.68 975.734 212.227C975.734 195.503 970.068 181.208 959.277 169.07C947.947 156.393 934.188 150.189 918.002 150.189C901.545 150.189 887.787 156.393 876.456 169.07C875.377 170.149 874.028 171.498 873.219 173.116V152.886H854.335V339L873.219 338.73ZM956.849 212.227C956.849 223.555 952.803 233.805 944.709 242.437C936.616 251.068 926.635 255.384 915.034 255.384C903.164 255.384 893.182 251.068 885.089 242.437C876.996 233.805 873.219 223.555 873.219 212.227C873.219 200.628 876.996 190.379 885.089 182.017C893.182 173.386 903.164 169.07 915.034 169.07C926.635 169.07 936.616 173.386 944.709 182.017C952.803 190.379 956.849 200.628 956.849 212.227Z" fill="white"/>
<path d="M1116.7 209.26C1116.7 193.076 1110.23 179.05 1097.82 166.912C1085.68 155.314 1071.11 149.38 1054.65 149.38C1037.39 149.38 1022.82 155.583 1010.68 167.721C998.539 179.859 992.604 194.425 992.604 211.418C992.604 228.68 998.539 243.246 1010.68 255.114C1016.34 260.778 1022.82 265.094 1030.37 268.331C1037.93 271.567 1046.83 273.186 1057.35 273.186C1067.87 273.186 1078.12 269.949 1088.37 263.476C1098.63 257.002 1106.18 247.831 1111.3 236.503H1089.72C1085.41 242.167 1080.28 246.483 1074.08 249.719C1067.87 252.956 1061.4 254.574 1054.65 254.574C1044.4 254.574 1035.23 251.068 1027.14 244.594C1019.04 237.851 1013.92 229.49 1012.3 219.51H1116.7V209.26ZM1096.74 203.326H1012.57C1013.65 198.201 1015.53 193.615 1018.23 189.3C1026.87 175.274 1039.01 168.261 1054.65 168.261C1064.63 168.261 1073.54 171.498 1081.36 177.971C1089.45 184.714 1094.31 193.076 1096.74 203.326Z" fill="white"/>
<path d="M1193.68 177.162V152.616C1189.91 150.998 1185.86 150.189 1181.81 150.189C1168.33 150.189 1158.61 157.741 1152.41 172.307L1151.6 177.162V152.616H1132.72V271.298H1151.6V211.957C1151.6 202.247 1153.76 193.615 1158.34 185.793C1160.5 181.747 1163.47 178.241 1166.98 175.543C1170.48 172.846 1174.8 171.228 1179.66 171.228C1184.51 171.228 1189.1 173.386 1193.68 177.162Z" fill="white"/>
<path d="M1287.65 86.5325V69H1274.17C1260.68 69 1251.23 72.5065 1245.57 78.98C1239.9 85.4536 1234.71 94.8941 1234.71 106.762V152.616H1210.7V170.149H1234.71V271.298H1253.59V170.149H1285.16V152.616H1253.59V101.368C1253.59 97.3217 1256.9 93.8152 1259.06 90.8482C1260.95 88.1509 1264.99 86.5325 1271.2 86.5325H1287.65Z" fill="white"/>
<path d="M1399.06 211.418C1399.06 223.286 1394.74 233.266 1386.38 241.627C1377.74 250.259 1367.76 254.305 1355.89 254.305C1344.02 254.305 1333.77 250.259 1325.41 241.627C1316.77 233.266 1312.73 223.286 1312.73 211.418C1312.73 199.549 1316.77 189.569 1325.41 180.938C1333.77 172.576 1344.02 168.261 1355.89 168.261C1367.76 168.261 1377.74 172.576 1386.38 180.938C1394.74 189.569 1399.06 199.549 1399.06 211.418ZM1417.94 211.418C1417.94 194.425 1411.73 179.859 1399.59 167.721C1387.45 155.583 1372.89 149.38 1355.89 149.38C1338.63 149.38 1324.06 155.583 1311.92 167.721C1299.78 179.859 1293.84 194.425 1293.84 211.418C1293.84 228.68 1299.78 243.246 1311.92 255.114C1324.06 267.252 1338.9 273.186 1355.89 273.186C1372.62 273.186 1387.45 267.252 1399.59 255.114C1411.73 243.246 1417.94 228.68 1417.94 211.418Z" fill="white"/>
<path d="M1496.24 177.162V152.616C1492.46 150.998 1488.42 150.189 1484.37 150.189C1470.88 150.189 1461.17 157.741 1454.97 172.307L1454.16 177.162V152.616H1435.27V271.298H1454.16V211.957C1454.16 202.247 1456.31 193.615 1460.9 185.793C1463.06 181.747 1466.03 178.241 1469.53 175.543C1473.04 172.846 1477.36 171.228 1482.21 171.228C1487.07 171.228 1491.66 173.386 1496.24 177.162Z" fill="white"/>
<path d="M1611.59 211.957C1611.59 223.555 1607.54 233.805 1599.45 242.167C1591.35 250.798 1581.37 255.114 1569.77 255.114C1558.17 255.114 1548.19 250.798 1539.83 242.167C1531.73 233.805 1527.69 223.825 1527.69 211.957C1527.69 200.359 1531.73 190.379 1539.83 181.747C1548.19 173.116 1558.17 168.8 1569.77 168.8C1581.37 168.8 1591.35 173.116 1599.45 181.747C1607.54 190.379 1611.59 200.628 1611.59 211.957ZM1527.42 287.482H1507.99C1510.15 300.159 1515.82 311.218 1525.53 320.658C1537.4 332.796 1546.97 338.73 1563.97 338.73C1580.69 338.73 1600.26 332.796 1612.4 320.658C1624.27 308.79 1630.47 294.225 1630.47 277.232V152.616H1611.59V172.576C1610.51 171.498 1609.43 170.149 1608.35 168.8C1596.48 156.393 1582.72 149.919 1567.07 149.919C1550.35 149.919 1536.59 156.393 1525.26 168.8C1514.47 181.208 1509.07 195.503 1509.07 211.957C1509.07 228.68 1514.47 242.976 1525.26 255.114C1536.59 267.791 1550.35 273.995 1567.07 273.995C1583.26 273.995 1597.02 267.791 1608.35 255.114C1609.43 254.035 1610.51 252.686 1611.59 251.607V277.232C1611.59 289.1 1607.27 299.08 1598.91 307.442C1590.55 315.803 1580.56 319.849 1568.96 319.849C1557.09 319.849 1547.11 315.803 1538.75 307.442C1532.81 301.507 1529.04 295.034 1527.42 287.482Z" fill="white"/>
<path d="M1772 209.26C1772 193.076 1765.53 179.05 1753.12 166.912C1740.98 155.314 1726.41 149.38 1709.95 149.38C1692.69 149.38 1678.12 155.583 1665.98 167.721C1653.84 179.859 1647.9 194.425 1647.9 211.418C1647.9 228.68 1653.84 243.246 1665.98 255.114C1671.64 260.778 1678.12 265.094 1685.67 268.331C1693.23 271.567 1702.13 273.186 1712.65 273.186C1723.17 273.186 1733.42 269.949 1743.67 263.476C1753.93 257.002 1761.48 247.831 1766.6 236.503H1745.02C1740.71 242.167 1735.58 246.483 1729.38 249.719C1723.17 252.956 1716.7 254.574 1709.95 254.574C1699.7 254.574 1690.53 251.068 1682.43 244.594C1674.34 237.851 1669.22 229.49 1667.6 219.51H1772V209.26ZM1752.04 203.326H1667.87C1668.95 198.201 1670.83 193.615 1673.53 189.3C1682.17 175.274 1694.3 168.261 1709.95 168.261C1719.93 168.261 1728.84 171.498 1736.66 177.971C1744.75 184.714 1749.61 193.076 1752.04 203.326Z" fill="white"/>
<path d="M166 269.44L235.823 78.44H278.986L209.163 269.44H166Z" fill="#C9803C"/>
<path d="M232.014 269.44L301.837 78.44H345L275.177 269.44H232.014Z" fill="#C9803C"/>
</svg>
